# xmcd
#
# Track frame offsets:
#	150
#	11699
#	26414
#	38602
#	47957
#	57807
#	71057
#	81877
#	93516
#	105908
#	114918
#	127791
#	136764
#	146258
#
# Disc length: 2136 seconds
#
# Revision: 1
# Processed by: cddbd v1.5.2PL0 Copyright (c) Steve Scherf et al.
# Submitted via: audiograbber 1.83.01
#
DISCID=a808560e
DTITLE=Johnny Paycheck - The Lovin' Machine
DYEAR=1966
DGENRE=Country
TTITLE0=The Lovin' Machine
TTITLE1=Miller's Cave
TTITLE2=Florence Jean
TTITLE3=Hang On Sally
TTITLE4=Is That All I Meant To You
TTITLE5=I've Got Someone To Kill
TTITLE6=I Want You To Know
TTITLE7=Swinging Doors
TTITLE8=We're The Kind Of People
TTITLE9=The Johnson's Of Turkey Ridge
TTITLE10=Between Love And Hate
TTITLE11=Don't You Say Nothin' At All
TTITLE12=I Don't Know What Keeps Us Together
TTITLE13=I Know I Never Will
EXTD=
EXTT0=
EXTT1=
EXTT2=
EXTT3=
EXTT4=
EXTT5=
EXTT6=
EXTT7=
EXTT8=
EXTT9=
EXTT10=
EXTT11=
EXTT12=
EXTT13=
PLAYORDER=
